<?xml version="1.0" encoding="utf-8"?>
<!-- Generator: Adobe Illustrator 16.0.0, SVG Export Plug-In . SVG Version: 6.00 Build 0)  -->
<!DOCTYPE svg PUBLIC "-//W3C//DTD SVG 1.1//EN" "http://www.w3.org/Graphics/SVG/1.1/DTD/svg11.dtd">
<svg version="1.1" id="Layer_1" xmlns="http://www.w3.org/2000/svg" xmlns:xlink="http://www.w3.org/1999/xlink" x="0px" y="0px"
	 width="128px" height="128px" viewBox="0 0 128 128" enable-background="new 0 0 128 128" xml:space="preserve">
<g>
	<g>
		<g>
			<path fill="#282D33" d="M56.521,128h-4v-10.859H35.707c-7.652,0-13.879-6.154-13.879-13.719v-15.15H10.105L25.813,61.44
				c-0.018-0.485-0.03-0.972-0.03-1.461c0-7.278,1.694-14.235,5.035-20.677l3.551,1.842c-3.043,5.867-4.586,12.204-4.586,18.835
				c0,0.631,0.023,1.255,0.05,1.881l0.025,0.587L17.084,84.271h8.744v19.15c0,5.359,4.432,9.719,9.879,9.719h20.813V128z"/>
		</g>
		<g>
			<path fill="#282D33" d="M105.021,128h-4V89.829l0.595-0.587c7.918-7.821,12.278-18.214,12.278-29.263
				c0-4.369-0.686-8.671-2.039-12.787l3.801-1.249c1.485,4.52,2.238,9.242,2.238,14.036c0,11.847-4.565,23.003-12.873,31.511V128z"
				/>
		</g>
	</g>
	<g>
		<g>
			<path fill="#282D33" d="M92.895,80.389H54.526l-0.127-1.865c-0.271-4.011-1.188-7.229-2.583-9.063
				c-13.624-17.289-14.006-33.838-14.006-34C37.811,15.908,53.931,0,73.744,0c19.813,0,35.932,15.908,35.932,35.461
				c0,0.162-0.382,16.697-14.027,34.026c-1.382,1.812-2.317,5.034-2.616,9.05L92.895,80.389z M58.217,76.389h31.012
				c0.391-3.101,1.28-6.758,3.259-9.352c12.83-16.295,13.188-31.428,13.188-31.576C105.676,18.113,91.352,4,73.744,4
				C56.136,4,41.811,18.113,41.811,35.461c0,0.148,0.358,15.295,13.168,31.551C56.969,69.628,57.844,73.287,58.217,76.389z"/>
		</g>
		<g>
			<g>
				
					<rect x="42.672" y="57.909" transform="matrix(0.1797 0.9837 -0.9837 0.1797 109.2683 -11.223)" fill="#282D33" width="37.383" height="4"/>
			</g>
			<g>
				
					<rect x="84.128" y="41.218" transform="matrix(0.9837 0.1797 -0.1797 0.9837 12.1648 -14.4988)" fill="#282D33" width="4.001" height="37.385"/>
			</g>
		</g>
		<g>
			<polygon fill="#282D33" points="63.388,48.26 57.502,46.02 58.925,42.282 63.388,43.98 68.563,42.011 73.736,43.98 
				78.914,42.011 84.094,43.98 88.563,42.281 89.984,46.021 84.094,48.26 78.914,46.291 73.736,48.26 68.563,46.291 			"/>
		</g>
		<g>
			<g>
				<rect x="51.683" y="76.782" fill="#282D33" width="44.126" height="4"/>
			</g>
			<g>
				<rect x="51.683" y="86.605" fill="#282D33" width="44.126" height="4"/>
			</g>
			<g>
				<rect x="59.317" y="96.434" fill="#282D33" width="28.856" height="4"/>
			</g>
			<g>
				<rect x="54.804" y="79.232" fill="#282D33" width="4" height="10.248"/>
			</g>
		</g>
	</g>
	<g>
		<rect x="71.746" y="97.614" fill="#282D33" width="4" height="30.386"/>
	</g>
</g>
</svg>
