<?xml version="1.0" encoding="utf-8"?>
<!-- Generator: Adobe Illustrator 16.0.0, SVG Export Plug-In . SVG Version: 6.00 Build 0)  -->
<!DOCTYPE svg PUBLIC "-//W3C//DTD SVG 1.1//EN" "http://www.w3.org/Graphics/SVG/1.1/DTD/svg11.dtd">
<svg version="1.1" id="Layer_1" xmlns="http://www.w3.org/2000/svg" xmlns:xlink="http://www.w3.org/1999/xlink" x="0px" y="0px"
	 width="128px" height="128px" viewBox="0 0 128 128" enable-background="new 0 0 128 128" xml:space="preserve">
<g>
	<g>
		<path fill="#282D33" d="M86.922,96.732H41l-0.127-1.864c-0.238-3.502-0.993-8.292-3.233-11.229
			C21.131,62.758,20.668,42.817,20.668,42.622C20.668,19.12,40.107,0,64,0c11.572,0,22.449,4.428,30.63,12.468
			c8.191,8.049,12.701,18.758,12.701,30.153c0,0.195-0.463,20.117-16.996,41.045c-2.23,2.912-3.014,7.709-3.277,11.216
			L86.922,96.732z M44.696,92.732h38.552c0.443-3.785,1.496-8.344,3.93-11.522c15.715-19.891,16.154-38.407,16.154-38.589
			c0-10.313-4.086-20.009-11.504-27.3C84.398,8.021,74.516,4,64,4C42.313,4,24.668,21.326,24.668,42.622
			c0,0.182,0.439,18.716,16.13,38.564C43.243,84.391,44.275,88.948,44.696,92.732z"/>
	</g>
	<g>
		<g>
			<rect x="37.127" y="93.214" fill="#282D33" width="53.75" height="4"/>
		</g>
		<g>
			<rect x="37.127" y="103.477" fill="#282D33" width="53.75" height="4"/>
		</g>
		<g>
			<rect x="37.127" y="113.736" fill="#282D33" width="53.75" height="4"/>
		</g>
		<g>
			<rect x="44.437" y="124" fill="#282D33" width="39.132" height="4"/>
		</g>
		<g>
			<rect x="41.366" y="95.759" fill="#282D33" width="4" height="19.5"/>
		</g>
	</g>
	<g>
		<g>
			<path fill="#282D33" d="M69.541,75.313H57.403l-0.681-8.051c-1.922-0.57-3.76-1.367-5.493-2.38l-6.039,5.021l-8.609-8.459
				l5.316-6.179c-0.936-1.726-1.655-3.55-2.148-5.451l-7.896-0.647l0.001-12.001l8.2-0.673c0.579-1.875,1.381-3.666,2.395-5.352
				l-5.122-5.949l8.61-8.46l6.27,5.214c1.772-0.932,3.646-1.647,5.597-2.135l0.659-7.757h12.136l0.686,8.052
				c1.924,0.574,3.764,1.372,5.492,2.383l6.037-5.024l8.609,8.463l-5.316,6.175c0.938,1.727,1.656,3.552,2.148,5.452l7.895,0.647
				v12.004l-8.197,0.67c-0.58,1.875-1.381,3.667-2.395,5.353l5.123,5.951l-8.613,8.459l-6.27-5.215
				c-1.77,0.932-3.645,1.646-5.598,2.136L69.541,75.313z M61.079,71.313h4.789l0.6-7.075l1.494-0.281
				c2.504-0.472,4.869-1.369,7.027-2.666l1.217-0.731l5.639,4.69l3.361-3.3l-4.662-5.414l0.877-1.271
				c1.422-2.057,2.441-4.327,3.035-6.745l0.342-1.399l7.352-0.602v-4.632l-7.199-0.591l-0.287-1.49
				c-0.471-2.444-1.379-4.756-2.699-6.871l-0.779-1.249l4.764-5.533l-3.357-3.301l-5.518,4.59l-1.242-0.831
				c-2.098-1.402-4.414-2.41-6.883-2.994l-1.408-0.333l-0.615-7.234h-4.787l-0.601,7.081l-1.496,0.28
				c-2.5,0.468-4.862,1.365-7.023,2.664l-1.217,0.731l-5.639-4.69l-3.359,3.301l4.661,5.414l-0.878,1.271
				c-1.421,2.057-2.442,4.326-3.034,6.743l-0.343,1.399l-7.354,0.604l-0.001,4.631l7.197,0.59l0.288,1.489
				c0.474,2.447,1.382,4.758,2.7,6.871l0.779,1.248l-4.763,5.535l3.359,3.3l5.518-4.585l1.241,0.828
				c2.107,1.406,4.422,2.411,6.881,2.988l1.414,0.332L61.079,71.313z"/>
		</g>
		<g>
			<path fill="#282D33" d="M64,54.908c-6.278,0-11.386-5.035-11.386-11.223c0-6.19,5.108-11.227,11.386-11.227
				c6.279,0,11.386,5.037,11.386,11.227C75.387,49.874,70.279,54.908,64,54.908z M64,36.458c-4.073,0-7.386,3.242-7.386,7.227
				c0,3.983,3.313,7.223,7.386,7.223c4.074,0,7.386-3.24,7.386-7.223C71.387,39.7,68.074,36.458,64,36.458z"/>
		</g>
	</g>
</g>
</svg>
